<svg xmlns="http://www.w3.org/2000/svg" width="1200" height="360" viewBox="0 0 1200 360"><defs><marker id="a" markerWidth="10" markerHeight="10" refX="8" refY="5" orient="auto"><path d="M0 0L10 5L0 10" fill="none" stroke="#8BE9FD" stroke-width="1.5"/></marker></defs><rect width="1200" height="360" rx="24" fill="#07111d"/><path d="M20 62H1180M20 318H1180" stroke="#19344a"/><text x="42" y="48" fill="#8BE9FD" font-family="monospace" font-size="14" letter-spacing="3">03 / AI &amp; RAG</text><text x="42" y="88" fill="#64748b" font-family="monospace" font-size="11" letter-spacing="2">DATA → RETRIEVAL → CONTEXT → REASONING → RESPONSE</text><g fill="#101d31" stroke-width="2"><rect x="45" y="120" width="175" height="105" rx="18" stroke="#C4B5FD"/><rect x="270" y="120" width="175" height="105" rx="18" stroke="#7DD3FC"/><rect x="495" y="120" width="175" height="105" rx="18" stroke="#6EE7B7"/><rect x="720" y="120" width="175" height="105" rx="18" stroke="#F9A8D4"/><rect x="945" y="120" width="175" height="105" rx="18" stroke="#FDE68A"/></g><g font-family="Merienda, cursive" text-anchor="middle"><text x="132" y="160" fill="#fff" font-size="25">Your Data</text><text x="132" y="188" fill="#C4B5FD" font-size="16">documents · APIs</text><text x="357" y="160" fill="#fff" font-size="25">Ingest</text><text x="357" y="188" fill="#7DD3FC" font-size="16">chunk · index</text><text x="582" y="160" fill="#fff" font-size="25">Retrieve</text><text x="582" y="188" fill="#6EE7B7" font-size="16">embed · vector DB</text><text x="807" y="160" fill="#fff" font-size="24">LLM + RAG</text><text x="807" y="188" fill="#F9A8D4" font-size="16">context · reason</text><text x="1032" y="160" fill="#fff" font-size="25">Useful</text><text x="1032" y="188" fill="#FDE68A" font-size="16">answers</text></g><path d="M220 172Q245 130 265 172M445 172Q470 215 490 172M670 172Q695 125 715 172M895 172Q920 215 940 172" fill="none" stroke="#8BE9FD" stroke-width="2.5" marker-end="url(#a)"/><path d="M1035 245C820 300 390 300 130 245" fill="none" stroke="#7DD3FC" stroke-width="2" marker-end="url(#a)"/><g stroke="#6EE7B7" fill="none" opacity=".8"><circle cx="582" cy="172" r="68" stroke-dasharray="3 7"/><path d="M582 105V92M582 252V239M515 172H502M662 172H649"/></g><text x="600" y="292" fill="#7DD3FC" font-family="Merienda, cursive" font-size="22" text-anchor="middle" transform="rotate(-1 600 292)">secure · grounded · observable · evaluated</text></svg>