<svg xmlns="http://www.w3.org/2000/svg" viewBox="0 0 1200 360"><rect width="1200" height="360" rx="24" fill="#07111d"/><path d="M20 62H1180M20 318H1180" stroke="#19344a"/><text x="42" y="48" fill="#8BE9FD" font-family="monospace" font-size="14" letter-spacing="3">02 / HOW I WORK</text><circle cx="135" cy="165" r="48" fill="none" stroke="#7DD3FC" stroke-width="3"/><g fill="none" stroke="#fff" stroke-width="1.7" stroke-linecap="round" stroke-linejoin="round"><path d="M0 20 L0 0 Q20 0 20 7 Q20 13 0 12" transform="translate(103,143.4) scale(1) rotate(-3)"/><path d="M20 0 L0 0 L0 20 L20 20 M0 10 L15 10" transform="translate(127,145)"/><path d="M10 0 Q20 0 20 10 Q20 20 10 20 Q0 20 0 10 Q0 0 10 0" transform="translate(151,146.6) scale(1) rotate(3)"/><path d="M0 20 L0 0 Q20 0 20 7 Q20 13 0 12" transform="translate(175,144.2) rotate(-1)"/><path d="M0 0 L0 20 L20 20" transform="translate(199,145.8) rotate(2)"/><path d="M20 0 L0 0 L0 20 L20 20 M0 10 L15 10" transform="translate(223,143.4) rotate(-2)"/></g><g fill="none" stroke="#7DD3FC" stroke-width="1.7" stroke-linecap="round" stroke-linejoin="round"><path d="M0 0 L0 14 Q0 20 10 20 Q20 20 20 14 L20 0" transform="translate(100,188.4) scale(.72) rotate(-3)"/><path d="M0 20 L0 0 L20 20 L20 0" transform="translate(117.3,190) scale(.72)"/><path d="M0 0 L0 20 Q20 20 20 10 Q20 0 0 0" transform="translate(134.6,191.6) scale(.72) rotate(3)"/><path d="M20 0 L0 0 L0 20 L20 20 M0 10 L15 10" transform="translate(151.8,189.2) scale(.72) rotate(-1)"/><path d="M0 20 L0 0 Q20 0 20 7 Q20 13 0 12 M10 12 L21 20" transform="translate(169.1,190.8) scale(.72) rotate(2)"/><path d="M20 2 Q2 -3 2 7 Q2 11 12 12 Q22 13 18 18 Q14 23 0 18" transform="translate(186.4,188.4) scale(.72) rotate(-2)"/><path d="M0 0 L20 0 M10 0 L10 20" transform="translate(203.7,190) scale(.72) rotate(1)"/><path d="M0 20 L10 0 L20 20 M4 13 L16 13" transform="translate(221,191.6) scale(.72) rotate(-3)"/><path d="M0 20 L0 0 L20 20 L20 0" transform="translate(238.2,189.2) scale(.72)"/><path d="M0 0 L0 20 Q20 20 20 10 Q20 0 0 0" transform="translate(255.5,190.8) scale(.72) rotate(3)"/></g><circle cx="385" cy="165" r="48" fill="none" stroke="#F9A8D4" stroke-width="3"/><g fill="none" stroke="#fff" stroke-width="1.7" stroke-linecap="round" stroke-linejoin="round"><path d="M0 20 L0 0 Q20 0 20 7 Q20 13 0 12" transform="translate(353,143.4)"/><path d="M0 20 L0 0 Q20 0 20 7 Q20 13 0 12 M10 12 L21 20" transform="translate(377,145)"/><path d="M10 0 Q20 0 20 10 Q20 20 10 20 Q0 20 0 10 Q0 0 10 0" transform="translate(401,146.6) rotate(3)"/><path d="M0 0 L0 20 M0 0 Q20 0 0 10 Q20 10 0 20" transform="translate(425,144.2) rotate(-1)"/><path d="M0 0 L0 20 L20 20" transform="translate(449,145.8) rotate(2)"/><path d="M20 0 L0 0 L0 20 L20 20 M0 10 L15 10" transform="translate(473,143.4) rotate(-2)"/><path d="M0 20 L0 0 L10 12 L20 0 L20 20" transform="translate(497,145) rotate(1)"/></g><g fill="none" stroke="#F9A8D4" stroke-width="1.7" stroke-linecap="round" stroke-linejoin="round"><path d="M20 0 L0 0 L0 20 L20 20 M0 10 L15 10" transform="translate(350,188.4) scale(.72)"/><path d="M0 0 L20 20 M20 0 L0 20" transform="translate(367.3,190) scale(.72)"/><path d="M0 20 L0 0 Q20 0 20 7 Q20 13 0 12" transform="translate(384.6,191.6) scale(.72)"/><path d="M0 0 L0 20 L20 20" transform="translate(401.8,189.2) scale(.72)"/><path d="M10 0 Q20 0 20 10 Q20 20 10 20 Q0 20 0 10 Q0 0 10 0" transform="translate(419.1,190.8) scale(.72)"/><path d="M0 20 L0 0 Q20 0 20 7 Q20 13 0 12 M10 12 L21 20" transform="translate(436.4,188.4) scale(.72)"/><path d="M20 0 L0 0 L0 20 L20 20 M0 10 L15 10" transform="translate(453.7,190) scale(.72)"/></g><circle cx="635" cy="165" r="48" fill="none" stroke="#FDE68A" stroke-width="3"/><g fill="none" stroke="#fff" stroke-width="1.7" stroke-linecap="round" stroke-linejoin="round"><path d="M0 0 L0 20 Q20 20 20 10 Q20 0 0 0" transform="translate(603,143.4)"/><path d="M20 0 L0 0 L0 20 L20 20 M0 10 L15 10" transform="translate(627,145)"/><path d="M20 2 Q2 -3 2 7 Q2 11 12 12 Q22 13 18 18 Q14 23 0 18" transform="translate(651,146.6) rotate(3)"/><path d="M4 0 L16 0 M10 0 L10 20 M4 20 L16 20" transform="translate(675,144.2) rotate(-1)"/><path d="M20 4 Q2 -2 2 10 Q2 22 20 18 L20 11 L12 11" transform="translate(699,145.8) rotate(2)"/><path d="M0 20 L0 0 L20 20 L20 0" transform="translate(723,143.4) rotate(-2)"/></g><g fill="none" stroke="#FDE68A" stroke-width="1.7" stroke-linecap="round" stroke-linejoin="round"><path d="M0 20 L10 0 L20 20 M4 13 L16 13" transform="translate(600,188.4) scale(.72)"/><path d="M0 20 L0 0 Q20 0 20 7 Q20 13 0 12 M10 12 L21 20" transform="translate(617.3,190) scale(.72)"/><path d="M20 2 Q2 -2 2 10 Q2 22 20 18" transform="translate(634.6,191.6) scale(.72)"/><path d="M0 0 L0 20 M20 0 L20 20 M0 10 Q10 8 20 10" transform="translate(651.8,189.2) scale(.72)"/><path d="M4 0 L16 0 M10 0 L10 20 M4 20 L16 20" transform="translate(669.1,190.8) scale(.72)"/><path d="M0 0 L20 0 M10 0 L10 20" transform="translate(686.4,188.4) scale(.72)"/><path d="M20 0 L0 0 L0 20 L20 20 M0 10 L15 10" transform="translate(703.7,190) scale(.72)"/><path d="M20 2 Q2 -2 2 10 Q2 22 20 18" transform="translate(721,191.6) scale(.72)"/><path d="M0 0 L20 0 M10 0 L10 20" transform="translate(738.2,189.2) scale(.72)"/></g><circle cx="885" cy="165" r="48" fill="none" stroke="#C4B5FD" stroke-width="3"/><g fill="none" stroke="#fff" stroke-width="1.7" stroke-linecap="round" stroke-linejoin="round"><path d="M0 0 L0 20 M0 0 Q20 0 0 10 Q20 10 0 20" transform="translate(853,143.4)"/><path d="M0 0 L0 14 Q0 20 10 20 Q20 20 20 14 L20 0" transform="translate(877,145)"/><path d="M4 0 L16 0 M10 0 L10 20 M4 20 L16 20" transform="translate(901,146.6)"/><path d="M0 0 L0 20 L20 20" transform="translate(925,144.2)"/><path d="M0 0 L0 20 Q20 20 20 10 Q20 0 0 0" transform="translate(949,145.8)"/></g><g fill="none" stroke="#C4B5FD" stroke-width="1.7" stroke-linecap="round" stroke-linejoin="round"><path d="M20 0 L0 0 L0 20 L20 20 M0 10 L15 10" transform="translate(850,188.4) scale(.72)"/><path d="M0 20 L0 0 L20 20 L20 0" transform="translate(867.3,190) scale(.72)"/><path d="M0 20 L10 0 L20 20 M4 13 L16 13" transform="translate(884.6,191.6) scale(.72)"/><path d="M0 0 L0 20 M0 0 Q20 0 0 10 Q20 10 0 20" transform="translate(901.8,189.2) scale(.72)"/><path d="M0 0 L0 20 L20 20" transform="translate(919.1,190.8) scale(.72)"/><path d="M20 0 L0 0 L0 20 L20 20 M0 10 L15 10" transform="translate(936.4,188.4) scale(.72)"/></g><circle cx="1090" cy="165" r="48" fill="none" stroke="#6EE7B7" stroke-width="3"/><path d="M188 165Q250 110 330 165M438 165Q500 220 580 165M688 165Q750 110 830 165M938 165Q1000 220 1040 165" fill="none" stroke="#8BE9FD" stroke-width="2.5"/><path d="M1030 270C820 310 470 310 190 270" fill="none" stroke="#6EE7B7" stroke-width="2"/></svg>